<svg id="Capa_1" enable-background="new 0 0 512 512" height="512" viewBox="0 0 512 512" width="512" xmlns="http://www.w3.org/2000/svg"><g><path d="m511 177-.006-.006c-.001-2.711-.73-5.42-2.195-7.815l-52.799-86.399v-67.78c0-8.284-6.716-15-15-15h-370c-8.284 0-15 6.716-15 15v67.779l-52.799 86.399c-1.464 2.396-2.193 5.104-2.194 7.815l-.007.007v20c0 19.642 7.599 37.535 20 50.919v249.081c0 8.284 6.716 15 15 15h440c8.284 0 15-6.716 15-15v-249.081c12.401-13.385 20-31.278 20-50.919zm-30 20c0 24.813-20.187 45-45 45s-45-20.187-45-45v-5h90zm-11.746-35h-82.152l-18.333-60h63.82zm-383.254-132h340v42h-77.351c-.05 0-.101 0-.151 0h-184.993c-.051 0-.103 0-.154 0h-77.351zm275 162v5c0 24.813-20.187 45-45 45s-45-20.187-45-45v-5zm-90-30v-60h66.398l18.333 60zm-114.732 0 18.333-60h66.399v60zm84.732 30v5c0 24.813-20.187 45-45 45s-45-20.187-45-45v-5zm-161.587-90h63.82l-18.333 60h-82.154zm-48.413 90h90v5c0 24.813-20.187 45-45 45s-45-20.187-45-45zm280 290v-56h15c8.284 0 15-6.716 15-15s-6.716-15-15-15h-15v-60h80v146zm110 0v-161c0-8.284-6.716-15-15-15h-110c-8.284 0-15 6.716-15 15v161h-230v-214.3c7.825 2.775 16.236 4.3 25 4.3 24.508 0 46.305-11.818 60-30.052 13.695 18.234 35.492 30.052 60 30.052s46.305-11.818 60-30.052c13.694 18.234 35.492 30.052 60 30.052s46.306-11.818 60-30.052c13.694 18.234 35.492 30.052 60 30.052 8.764 0 17.175-1.525 25-4.3v214.3z"/><path d="m226 306h-120c-8.284 0-15 6.716-15 15v90c0 8.284 6.716 15 15 15h120c8.284 0 15-6.716 15-15v-90c0-8.284-6.716-15-15-15zm-15 90h-90v-60h90z"/></g></svg>